<?xml version="1.0" encoding="UTF-8"?>
<svg id="Layer_1" data-name="Layer 1" xmlns="http://www.w3.org/2000/svg" version="1.1" viewBox="0 0 1399.2 558">
  <defs>
    <style>
      .cls-1 {
        fill: #000;
        stroke: #000;
        stroke-miterlimit: 10;
      }

      .cls-2 {
        fill: #f15a24;
      }

      .cls-2, .cls-3 {
        stroke-width: 0px;
      }

      .cls-3 {
        fill: #fff;
      }
    </style>
  </defs>
  <circle class="cls-2" cx="279" cy="279" r="239"/>
  <polygon class="cls-1" points="153.29 520 153.29 271 278.15 146.15 278.15 526.79 224 526.79 153.29 520"/>
  <polygon class="cls-3" points="404.15 520 404.15 271 279.29 146.15 279.29 526.79 333.44 526.79 404.15 520"/>
  <path class="cls-3" d="M279,0C124.91,0,0,124.91,0,279s124.91,279,279,279,279-124.91,279-279S433.09,0,279,0ZM279,518c-132,0-239-107-239-239S147,40,279,40s239,107,239,239-107,239-239,239Z"/>
  <g>
    <path class="cls-3" d="M716.49,346.27h-49.46l-51.4-62.95v62.95h-40.54v-134.43h40.54v60.13l48.69-60.13h44.03l-50.05,62.95,58.19,71.48Z"/>
    <path class="cls-3" d="M836.27,346.27h-102.13v-134.43h40.54v102.23h61.59v32.2Z"/>
    <path class="cls-3" d="M1004.64,346.27h-41.51l-10.96-27.25h-58.39l-11.15,27.25h-41.51l59.45-134.43h44.81l59.26,134.43ZM942.86,295.64l-19.69-49.08-19.88,49.08h39.57Z"/>
    <path class="cls-3" d="M1178.84,346.27h-40.54v-77.88l-36.57,45.1h-3.2l-36.66-45.1v77.88h-39.38v-134.43h36.76l41.32,50.43,41.51-50.43h36.76v134.43Z"/>
    <path class="cls-3" d="M1369.13,346.27h-40.54v-77.88l-36.57,45.1h-3.2l-36.66-45.1v77.88h-39.38v-134.43h36.76l41.32,50.43,41.51-50.43h36.76v134.43Z"/>
  </g>
</svg>