<?xml version="1.0" encoding="UTF-8"?>
<svg id="Layer_1" data-name="Layer 1" xmlns="http://www.w3.org/2000/svg" version="1.1" viewBox="0 0 1674.5 558">
  <defs>
    <style>
      .cls-1 {
        fill: #000;
        stroke: #000;
        stroke-miterlimit: 10;
      }

      .cls-2 {
        fill: #f15a24;
      }

      .cls-2, .cls-3 {
        stroke-width: 0px;
      }

      .cls-3 {
        fill: #fff;
      }

      .cls-4 {
        fill: #000;
      }
    </style>
  </defs>
  <circle class="cls-2" cx="279" cy="279" r="239"/>
  <polygon class="cls-1" points="153.29 520 153.29 271 278.15 146.15 278.15 526.79 224 526.79 153.29 520"/>
  <polygon class="cls-3" points="404.15 520 404.15 271 279.29 146.15 279.29 526.79 333.44 526.79 404.15 520"/>
  <path class="cls-4" d="M279,0C124.91,0,0,124.91,0,279s124.91,279,279,279,279-124.91,279-279S433.09,0,279,0ZM279,518c-132,0-239-107-239-239S147,40,279,40s239,107,239,239-107,239-239,239Z"/>
  <path class="cls-4" d="M793.59,392.1h-71.74l-74.55-105.64v105.64h-58.8v-225.6h58.8v100.92l70.61-100.92h63.86l-72.58,105.64,84.4,119.96Z"/>
  <path class="cls-4" d="M953.35,392.1h-148.12v-225.6h58.8v171.56h89.32v54.04Z"/>
  <path class="cls-4" d="M1197.55,392.1h-60.2l-15.9-45.74h-84.68l-16.18,45.74h-60.21l86.23-225.6h64.99l85.95,225.6ZM1107.94,307.13l-28.56-82.36-28.84,82.36h57.39Z"/>
  <path class="cls-4" d="M1436.22,392.1h-58.8v-130.71l-53.03,75.69h-4.64l-53.17-75.69v130.71h-57.11v-225.6h53.31l59.92,84.64,60.21-84.64h53.31v225.6Z"/>
  <path class="cls-4" d="M1674.5,392.1h-58.8v-130.71l-53.03,75.69h-4.64l-53.17-75.69v130.71h-57.11v-225.6h53.31l59.92,84.64,60.21-84.64h53.31v225.6Z"/>
</svg>
