<svg width="40" height="40" viewBox="0 0 40 40" fill="none" xmlns="http://www.w3.org/2000/svg">
<path d="M19.5 30.2778H7.77778C7.04107 30.2778 6.33453 29.9851 5.81359 29.4642C5.29266 28.9432 5 28.2367 5 27.5V5.27778C5 4.54107 5.29266 3.83453 5.81359 3.31359C6.33453 2.79266 7.04107 2.5 7.77778 2.5H20.2778L27.2222 9.44444V22" stroke="#2D2D2D" stroke-width="2.2" stroke-linecap="round" stroke-linejoin="round"/>
<path d="M18.8892 2.5V8.05556C18.8892 8.79227 19.1818 9.49881 19.7028 10.0197C20.2237 10.5407 20.9302 10.8333 21.6669 10.8333H27.2225" stroke="#2D2D2D" stroke-width="2.2" stroke-linecap="round" stroke-linejoin="round"/>
<path d="M10.5558 22.4996L16.1113 12.7773L21.6669 22.4996" stroke="#2D2D2D" stroke-width="2.2" stroke-linecap="round" stroke-linejoin="round"/>
<path d="M12.0834 19.7222H20" stroke="#2D2D2D" stroke-width="2.2" stroke-linecap="round" stroke-linejoin="round"/>
<path d="M26.9446 36.389C30.6265 36.389 33.6113 33.4042 33.6113 29.7223C33.6113 26.0404 30.6265 23.0557 26.9446 23.0557C23.2627 23.0557 20.278 26.0404 20.278 29.7223C20.278 33.4042 23.2627 36.389 26.9446 36.389Z" stroke="#2D2D2D" stroke-width="2.2" stroke-linecap="round" stroke-linejoin="round"/>
<path d="M35.2779 38.0555L31.6946 34.4722" stroke="#2D2D2D" stroke-width="2.2" stroke-linecap="round" stroke-linejoin="round"/>
<path d="M21.1112 32.4998H26.389C27.1257 32.4998 27.8322 32.2071 28.3532 31.6862C28.8741 31.1653 29.1668 30.4587 29.1668 29.722V23.8887" stroke="#2D2D2D" stroke-width="2.2" stroke-linecap="round" stroke-linejoin="round"/>
</svg>
