<svg width="239" height="40" viewBox="0 0 239 40" fill="none" xmlns="http://www.w3.org/2000/svg">
<path d="M20.2778 2.5H7.77778C7.04107 2.5 6.33453 2.79266 5.81359 3.31359C5.29266 3.83453 5 4.54107 5 5.27778V27.5C5 28.2367 5.29266 28.9432 5.81359 29.4642C6.33453 29.9851 7.04107 30.2778 7.77778 30.2778H24.4444C25.1812 30.2778 25.8877 29.9851 26.4086 29.4642C26.9296 28.9432 27.2222 28.2367 27.2222 27.5V9.44444L20.2778 2.5Z" stroke="white" stroke-width="2.2" stroke-linecap="round" stroke-linejoin="round"/>
<path d="M18.8892 2.5V8.05556C18.8892 8.79227 19.1818 9.49881 19.7028 10.0197C20.2237 10.5407 20.9302 10.8333 21.6669 10.8333H27.2225" stroke="white" stroke-width="2.2" stroke-linecap="round" stroke-linejoin="round"/>
<path d="M10.5558 22.4996L16.1113 12.7773L21.6669 22.4996" stroke="white" stroke-width="2.2" stroke-linecap="round" stroke-linejoin="round"/>
<path d="M12.0834 19.7222H20" stroke="white" stroke-width="2.2" stroke-linecap="round" stroke-linejoin="round"/>
<path d="M26.9446 36.389C30.6265 36.389 33.6113 33.4042 33.6113 29.7223C33.6113 26.0404 30.6265 23.0557 26.9446 23.0557C23.2627 23.0557 20.278 26.0404 20.278 29.7223C20.278 33.4042 23.2627 36.389 26.9446 36.389Z" fill="#FCBA19" stroke="white" stroke-width="2.2" stroke-linecap="round" stroke-linejoin="round"/>
<path d="M35.2779 38.0555L31.6946 34.4722" stroke="white" stroke-width="2.2" stroke-linecap="round" stroke-linejoin="round"/>
<path d="M21.1112 32.4998H26.389C27.1257 32.4998 27.8322 32.2071 28.3532 31.6862C28.8741 31.1653 29.1668 30.4587 29.1668 29.722V23.8887" stroke="white" stroke-width="2.2" stroke-linecap="round" stroke-linejoin="round"/>
<path d="M231.298 26.2681L231.566 25.6128L227.957 16.5249C227.735 16.0021 227.624 15.6226 227.624 15.3862C227.624 15.1356 227.688 14.9028 227.817 14.688C227.946 14.4731 228.122 14.3013 228.344 14.1724C228.573 14.0435 228.809 13.979 229.053 13.979C229.475 13.979 229.794 14.1151 230.009 14.3872C230.224 14.6522 230.413 15.0353 230.578 15.5366L233.06 22.7554L235.412 16.0415C235.598 15.4972 235.767 15.0711 235.917 14.7632C236.067 14.4552 236.225 14.2476 236.39 14.1401C236.562 14.0327 236.801 13.979 237.109 13.979C237.331 13.979 237.543 14.0399 237.743 14.1616C237.951 14.2762 238.108 14.4338 238.216 14.6343C238.33 14.8348 238.388 15.0461 238.388 15.2681C238.359 15.4041 238.312 15.5975 238.248 15.8481C238.184 16.0988 238.105 16.353 238.012 16.6108L234.188 26.6226C233.858 27.5034 233.536 28.1945 233.221 28.6958C232.906 29.1971 232.487 29.5802 231.964 29.8452C231.448 30.1174 230.75 30.2534 229.869 30.2534C229.01 30.2534 228.365 30.1603 227.936 29.9741C227.506 29.7879 227.291 29.4478 227.291 28.9536C227.291 28.617 227.391 28.3556 227.592 28.1694C227.799 27.9904 228.104 27.9009 228.505 27.9009C228.662 27.9009 228.816 27.9224 228.967 27.9653C229.153 28.0083 229.314 28.0298 229.45 28.0298C229.787 28.0298 230.052 27.9797 230.245 27.8794C230.438 27.7791 230.61 27.6037 230.761 27.353C230.918 27.1095 231.097 26.7479 231.298 26.2681Z" fill="white"/>
<path d="M221.855 21.6704V24.1196C221.855 24.714 221.716 25.1616 221.437 25.4624C221.157 25.756 220.803 25.9028 220.373 25.9028C219.951 25.9028 219.603 25.7524 219.331 25.4517C219.059 25.1509 218.923 24.7069 218.923 24.1196V15.9556C218.923 14.6379 219.399 13.979 220.352 13.979C220.839 13.979 221.189 14.133 221.404 14.4409C221.619 14.7489 221.737 15.2036 221.759 15.8052C222.11 15.2036 222.468 14.7489 222.833 14.4409C223.205 14.133 223.7 13.979 224.315 13.979C224.931 13.979 225.529 14.133 226.109 14.4409C226.689 14.7489 226.979 15.1571 226.979 15.6655C226.979 16.0236 226.854 16.3208 226.604 16.5571C226.36 16.7863 226.095 16.9009 225.809 16.9009C225.701 16.9009 225.44 16.8364 225.024 16.7075C224.616 16.5715 224.255 16.5034 223.939 16.5034C223.51 16.5034 223.159 16.618 222.887 16.8472C222.615 17.0692 222.403 17.4022 222.253 17.8462C222.103 18.2902 221.999 18.8201 221.941 19.436C221.884 20.0448 221.855 20.7896 221.855 21.6704Z" fill="white"/>
<path d="M213.272 24.2485C212.563 24.8 211.876 25.2153 211.21 25.4946C210.551 25.7668 209.81 25.9028 208.986 25.9028C208.234 25.9028 207.572 25.756 206.999 25.4624C206.433 25.1616 205.996 24.757 205.688 24.2485C205.381 23.7401 205.227 23.1886 205.227 22.5942C205.227 21.7922 205.481 21.1082 205.989 20.5425C206.498 19.9767 207.196 19.5972 208.084 19.4038C208.27 19.3608 208.732 19.2642 209.47 19.1138C210.207 18.9634 210.838 18.8273 211.36 18.7056C211.89 18.5767 212.463 18.4227 213.079 18.2437C213.043 17.4702 212.886 16.9045 212.606 16.5464C212.334 16.1812 211.765 15.9985 210.898 15.9985C210.154 15.9985 209.591 16.1024 209.212 16.3101C208.84 16.5177 208.517 16.8293 208.245 17.2446C207.98 17.66 207.79 17.9357 207.676 18.0718C207.568 18.2007 207.332 18.2651 206.967 18.2651C206.637 18.2651 206.351 18.1613 206.107 17.9536C205.871 17.7388 205.753 17.4666 205.753 17.1372C205.753 16.6216 205.936 16.1203 206.301 15.6333C206.666 15.1463 207.235 14.7453 208.009 14.4302C208.782 14.1151 209.745 13.9575 210.898 13.9575C212.188 13.9575 213.201 14.1115 213.938 14.4194C214.676 14.7202 215.195 15.2 215.496 15.8589C215.804 16.5177 215.958 17.3914 215.958 18.48C215.958 19.1675 215.954 19.7511 215.947 20.231C215.947 20.7108 215.944 21.2443 215.937 21.8315C215.937 22.383 216.026 22.9595 216.205 23.561C216.391 24.1554 216.484 24.5386 216.484 24.7104C216.484 25.0112 216.341 25.2869 216.055 25.5376C215.775 25.7811 215.457 25.9028 215.099 25.9028C214.798 25.9028 214.501 25.7632 214.207 25.4839C213.913 25.1974 213.602 24.7856 213.272 24.2485ZM213.079 20.0054C212.649 20.1629 212.023 20.3312 211.199 20.5103C210.383 20.6821 209.817 20.811 209.502 20.897C209.187 20.9757 208.886 21.1369 208.6 21.3804C208.313 21.6167 208.17 21.9497 208.17 22.3794C208.17 22.8234 208.338 23.203 208.675 23.5181C209.011 23.826 209.452 23.98 209.996 23.98C210.576 23.98 211.11 23.8547 211.597 23.604C212.091 23.3462 212.452 23.0168 212.682 22.6157C212.947 22.1717 213.079 21.4412 213.079 20.4243V20.0054Z" fill="white"/>
<path d="M195.226 15.6011V15.9556C195.741 15.2752 196.303 14.7775 196.912 14.4624C197.528 14.1401 198.233 13.979 199.028 13.979C199.802 13.979 200.493 14.1473 201.102 14.4839C201.71 14.8205 202.165 15.2967 202.466 15.9126C202.659 16.2707 202.785 16.6574 202.842 17.0728C202.899 17.4881 202.928 18.0181 202.928 18.6626V24.1196C202.928 24.7069 202.792 25.1509 202.52 25.4517C202.255 25.7524 201.907 25.9028 201.478 25.9028C201.041 25.9028 200.686 25.7489 200.414 25.4409C200.142 25.133 200.006 24.6925 200.006 24.1196V19.2319C200.006 18.2651 199.87 17.5275 199.598 17.019C199.333 16.5034 198.799 16.2456 197.997 16.2456C197.474 16.2456 196.998 16.4032 196.568 16.7183C196.139 17.0262 195.824 17.4523 195.623 17.9966C195.48 18.4334 195.408 19.2498 195.408 20.4458V24.1196C195.408 24.714 195.269 25.1616 194.989 25.4624C194.717 25.756 194.363 25.9028 193.926 25.9028C193.503 25.9028 193.156 25.7489 192.884 25.4409C192.612 25.133 192.476 24.6925 192.476 24.1196V15.644C192.476 15.0854 192.597 14.6701 192.841 14.3979C193.084 14.1187 193.417 13.979 193.84 13.979C194.098 13.979 194.33 14.0399 194.538 14.1616C194.746 14.2834 194.91 14.466 195.032 14.7095C195.161 14.953 195.226 15.2502 195.226 15.6011Z" fill="white"/>
<path d="M190.241 19.9409C190.241 20.8146 190.105 21.6203 189.833 22.3579C189.561 23.0955 189.167 23.7293 188.651 24.2593C188.136 24.7892 187.52 25.1974 186.804 25.4839C186.088 25.7632 185.282 25.9028 184.387 25.9028C183.499 25.9028 182.7 25.7596 181.991 25.4731C181.282 25.1867 180.666 24.7785 180.144 24.2485C179.628 23.7114 179.234 23.0812 178.962 22.3579C178.697 21.6274 178.564 20.8218 178.564 19.9409C178.564 19.0529 178.701 18.2401 178.973 17.5024C179.245 16.7648 179.635 16.1346 180.144 15.6118C180.652 15.089 181.268 14.688 181.991 14.4087C182.715 14.1222 183.513 13.979 184.387 13.979C185.275 13.979 186.08 14.1222 186.804 14.4087C187.527 14.6951 188.146 15.1034 188.662 15.6333C189.178 16.1632 189.568 16.7935 189.833 17.5239C190.105 18.2544 190.241 19.0601 190.241 19.9409ZM187.298 19.9409C187.298 18.745 187.033 17.814 186.503 17.1479C185.98 16.4819 185.275 16.1489 184.387 16.1489C183.814 16.1489 183.309 16.2993 182.872 16.6001C182.435 16.8937 182.099 17.3306 181.862 17.9106C181.626 18.4907 181.508 19.1675 181.508 19.9409C181.508 20.7072 181.622 21.3768 181.852 21.9497C182.088 22.5226 182.421 22.9631 182.851 23.271C183.287 23.5718 183.799 23.7222 184.387 23.7222C185.275 23.7222 185.98 23.3892 186.503 22.7231C187.033 22.05 187.298 21.1226 187.298 19.9409Z" fill="white"/>
<path d="M176.223 15.644V24.1196C176.223 24.7069 176.083 25.1509 175.804 25.4517C175.524 25.7524 175.17 25.9028 174.74 25.9028C174.311 25.9028 173.96 25.7489 173.688 25.4409C173.423 25.133 173.29 24.6925 173.29 24.1196V15.73C173.29 15.1499 173.423 14.7131 173.688 14.4194C173.96 14.1258 174.311 13.979 174.74 13.979C175.17 13.979 175.524 14.1258 175.804 14.4194C176.083 14.7131 176.223 15.1213 176.223 15.644ZM174.772 12.6147C174.364 12.6147 174.013 12.4894 173.72 12.2388C173.433 11.9881 173.29 11.6336 173.29 11.1753C173.29 10.7599 173.437 10.4198 173.73 10.1548C174.031 9.88265 174.379 9.74658 174.772 9.74658C175.152 9.74658 175.489 9.86833 175.782 10.1118C176.076 10.3553 176.223 10.7098 176.223 11.1753C176.223 11.6265 176.079 11.981 175.793 12.2388C175.507 12.4894 175.166 12.6147 174.772 12.6147Z" fill="white"/>
<path d="M165.652 14.2368H165.975V12.4751C165.975 12.0024 165.985 11.6336 166.007 11.3687C166.035 11.0965 166.107 10.8638 166.222 10.6704C166.336 10.4699 166.501 10.3088 166.716 10.187C166.931 10.0581 167.171 9.99365 167.436 9.99365C167.808 9.99365 168.145 10.1333 168.445 10.4126C168.646 10.5988 168.771 10.828 168.821 11.1001C168.879 11.3651 168.907 11.7446 168.907 12.2388V14.2368H169.981C170.397 14.2368 170.712 14.3371 170.927 14.5376C171.149 14.731 171.26 14.9816 171.26 15.2896C171.26 15.6834 171.102 15.9591 170.787 16.1167C170.479 16.2743 170.035 16.353 169.455 16.353H168.907V21.7456C168.907 22.2039 168.922 22.5584 168.95 22.8091C168.986 23.0526 169.072 23.2531 169.208 23.4106C169.351 23.561 169.58 23.6362 169.896 23.6362C170.067 23.6362 170.3 23.6076 170.594 23.5503C170.887 23.4858 171.117 23.4536 171.281 23.4536C171.518 23.4536 171.729 23.5503 171.915 23.7437C172.108 23.9299 172.205 24.1626 172.205 24.4419C172.205 24.9146 171.947 25.2762 171.432 25.5269C170.916 25.7775 170.175 25.9028 169.208 25.9028C168.291 25.9028 167.597 25.7489 167.124 25.4409C166.651 25.133 166.34 24.7069 166.189 24.1626C166.046 23.6183 165.975 22.8914 165.975 21.9819V16.353H165.588C165.165 16.353 164.843 16.2528 164.621 16.0522C164.399 15.8517 164.288 15.5975 164.288 15.2896C164.288 14.9816 164.403 14.731 164.632 14.5376C164.868 14.3371 165.208 14.2368 165.652 14.2368Z" fill="white"/>
<path d="M162.924 22.272C162.924 22.6372 162.813 23.0275 162.591 23.4429C162.376 23.8582 162.043 24.2557 161.592 24.6353C161.148 25.0076 160.586 25.3084 159.905 25.5376C159.225 25.7668 158.459 25.8813 157.606 25.8813C155.795 25.8813 154.38 25.355 153.363 24.3022C152.346 23.2424 151.838 21.8244 151.838 20.0483C151.838 18.8452 152.071 17.7817 152.536 16.8579C153.002 15.9341 153.675 15.2215 154.556 14.7202C155.437 14.2118 156.489 13.9575 157.714 13.9575C158.473 13.9575 159.168 14.0685 159.798 14.2905C160.435 14.5125 160.972 14.799 161.409 15.1499C161.853 15.5008 162.19 15.8768 162.419 16.2778C162.655 16.6717 162.773 17.0405 162.773 17.3843C162.773 17.7352 162.641 18.0324 162.376 18.2759C162.118 18.5194 161.803 18.6411 161.431 18.6411C161.187 18.6411 160.983 18.5802 160.818 18.4585C160.661 18.3296 160.482 18.1255 160.281 17.8462C159.923 17.3019 159.547 16.8937 159.153 16.6216C158.767 16.3494 158.272 16.2134 157.671 16.2134C156.804 16.2134 156.106 16.5535 155.576 17.2339C155.046 17.9071 154.781 18.8309 154.781 20.0054C154.781 20.5568 154.849 21.0653 154.985 21.5308C155.121 21.9891 155.318 22.383 155.576 22.7124C155.834 23.0347 156.146 23.2817 156.511 23.4536C156.876 23.6183 157.277 23.7007 157.714 23.7007C158.301 23.7007 158.802 23.5646 159.218 23.2925C159.64 23.0203 160.013 22.605 160.335 22.0464C160.514 21.717 160.707 21.4591 160.915 21.2729C161.123 21.0868 161.377 20.9937 161.678 20.9937C162.036 20.9937 162.333 21.1297 162.569 21.4019C162.806 21.674 162.924 21.964 162.924 22.272Z" fill="white"/>
<path d="M149.367 15.644V24.1196C149.367 24.7069 149.228 25.1509 148.948 25.4517C148.669 25.7524 148.314 25.9028 147.885 25.9028C147.455 25.9028 147.104 25.7489 146.832 25.4409C146.567 25.133 146.435 24.6925 146.435 24.1196V15.73C146.435 15.1499 146.567 14.7131 146.832 14.4194C147.104 14.1258 147.455 13.979 147.885 13.979C148.314 13.979 148.669 14.1258 148.948 14.4194C149.228 14.7131 149.367 15.1213 149.367 15.644ZM147.917 12.6147C147.509 12.6147 147.158 12.4894 146.864 12.2388C146.578 11.9881 146.435 11.6336 146.435 11.1753C146.435 10.7599 146.581 10.4198 146.875 10.1548C147.176 9.88265 147.523 9.74658 147.917 9.74658C148.297 9.74658 148.633 9.86833 148.927 10.1118C149.22 10.3553 149.367 10.7098 149.367 11.1753C149.367 11.6265 149.224 11.981 148.938 12.2388C148.651 12.4894 148.311 12.6147 147.917 12.6147Z" fill="white"/>
<path d="M132.33 9.88623H136.487C137.569 9.88623 138.496 9.98649 139.27 10.187C140.043 10.3875 140.745 10.7635 141.375 11.3149C143.015 12.7186 143.835 14.8527 143.835 17.7173C143.835 18.6626 143.753 19.5256 143.588 20.3062C143.423 21.0868 143.169 21.7922 142.825 22.4224C142.481 23.0454 142.041 23.604 141.504 24.0981C141.081 24.4777 140.619 24.7821 140.118 25.0112C139.617 25.2404 139.076 25.4015 138.496 25.4946C137.923 25.5877 137.275 25.6343 136.552 25.6343H132.395C131.814 25.6343 131.378 25.5483 131.084 25.3765C130.79 25.1974 130.597 24.9504 130.504 24.6353C130.418 24.313 130.375 23.8976 130.375 23.3892V11.8413C130.375 11.1538 130.529 10.6561 130.837 10.3481C131.145 10.0402 131.643 9.88623 132.33 9.88623ZM133.565 12.4106V23.0991H135.982C136.512 23.0991 136.928 23.0848 137.229 23.0562C137.529 23.0275 137.841 22.9559 138.163 22.8413C138.485 22.7267 138.765 22.5656 139.001 22.3579C140.068 21.4556 140.602 19.9015 140.602 17.6958C140.602 16.1418 140.365 14.978 139.893 14.2046C139.427 13.4312 138.851 12.9406 138.163 12.7329C137.476 12.5181 136.645 12.4106 135.671 12.4106H133.565Z" fill="white"/>
<path d="M117.012 14.2368H117.334V12.4751C117.334 12.0024 117.345 11.6336 117.366 11.3687C117.395 11.0965 117.466 10.8638 117.581 10.6704C117.696 10.4699 117.86 10.3088 118.075 10.187C118.29 10.0581 118.53 9.99365 118.795 9.99365C119.167 9.99365 119.504 10.1333 119.805 10.4126C120.005 10.5988 120.131 10.828 120.181 11.1001C120.238 11.3651 120.267 11.7446 120.267 12.2388V14.2368H121.341C121.756 14.2368 122.071 14.3371 122.286 14.5376C122.508 14.731 122.619 14.9816 122.619 15.2896C122.619 15.6834 122.462 15.9591 122.146 16.1167C121.839 16.2743 121.395 16.353 120.814 16.353H120.267V21.7456C120.267 22.2039 120.281 22.5584 120.31 22.8091C120.345 23.0526 120.431 23.2531 120.567 23.4106C120.711 23.561 120.94 23.6362 121.255 23.6362C121.427 23.6362 121.66 23.6076 121.953 23.5503C122.247 23.4858 122.476 23.4536 122.641 23.4536C122.877 23.4536 123.088 23.5503 123.274 23.7437C123.468 23.9299 123.564 24.1626 123.564 24.4419C123.564 24.9146 123.307 25.2762 122.791 25.5269C122.275 25.7775 121.534 25.9028 120.567 25.9028C119.651 25.9028 118.956 25.7489 118.483 25.4409C118.011 25.133 117.699 24.7069 117.549 24.1626C117.406 23.6183 117.334 22.8914 117.334 21.9819V16.353H116.947C116.525 16.353 116.202 16.2528 115.98 16.0522C115.758 15.8517 115.647 15.5975 115.647 15.2896C115.647 14.9816 115.762 14.731 115.991 14.5376C116.228 14.3371 116.568 14.2368 117.012 14.2368Z" fill="white"/>
<path d="M109.836 21.6704V24.1196C109.836 24.714 109.696 25.1616 109.417 25.4624C109.138 25.756 108.783 25.9028 108.354 25.9028C107.931 25.9028 107.584 25.7524 107.312 25.4517C107.039 25.1509 106.903 24.7069 106.903 24.1196V15.9556C106.903 14.6379 107.38 13.979 108.332 13.979C108.819 13.979 109.17 14.133 109.385 14.4409C109.6 14.7489 109.718 15.2036 109.739 15.8052C110.09 15.2036 110.448 14.7489 110.813 14.4409C111.186 14.133 111.68 13.979 112.296 13.979C112.912 13.979 113.51 14.133 114.09 14.4409C114.67 14.7489 114.96 15.1571 114.96 15.6655C114.96 16.0236 114.835 16.3208 114.584 16.5571C114.34 16.7863 114.076 16.9009 113.789 16.9009C113.682 16.9009 113.42 16.8364 113.005 16.7075C112.597 16.5715 112.235 16.5034 111.92 16.5034C111.49 16.5034 111.139 16.618 110.867 16.8472C110.595 17.0692 110.384 17.4022 110.233 17.8462C110.083 18.2902 109.979 18.8201 109.922 19.436C109.865 20.0448 109.836 20.7896 109.836 21.6704Z" fill="white"/>
<path d="M104.604 19.9409C104.604 20.8146 104.468 21.6203 104.196 22.3579C103.924 23.0955 103.53 23.7293 103.015 24.2593C102.499 24.7892 101.883 25.1974 101.167 25.4839C100.451 25.7632 99.6452 25.9028 98.75 25.9028C97.862 25.9028 97.0635 25.7596 96.3545 25.4731C95.6455 25.1867 95.0296 24.7785 94.5068 24.2485C93.9912 23.7114 93.5973 23.0812 93.3252 22.3579C93.0602 21.6274 92.9277 20.8218 92.9277 19.9409C92.9277 19.0529 93.0638 18.2401 93.3359 17.5024C93.6081 16.7648 93.9984 16.1346 94.5068 15.6118C95.0153 15.089 95.6312 14.688 96.3545 14.4087C97.0778 14.1222 97.8763 13.979 98.75 13.979C99.638 13.979 100.444 14.1222 101.167 14.4087C101.89 14.6951 102.51 15.1034 103.025 15.6333C103.541 16.1632 103.931 16.7935 104.196 17.5239C104.468 18.2544 104.604 19.0601 104.604 19.9409ZM101.661 19.9409C101.661 18.745 101.396 17.814 100.866 17.1479C100.343 16.4819 99.638 16.1489 98.75 16.1489C98.1771 16.1489 97.6722 16.2993 97.2354 16.6001C96.7985 16.8937 96.4619 17.3306 96.2256 17.9106C95.9893 18.4907 95.8711 19.1675 95.8711 19.9409C95.8711 20.7072 95.9857 21.3768 96.2148 21.9497C96.4512 22.5226 96.7842 22.9631 97.2139 23.271C97.6507 23.5718 98.1628 23.7222 98.75 23.7222C99.638 23.7222 100.343 23.3892 100.866 22.7231C101.396 22.05 101.661 21.1226 101.661 19.9409Z" fill="white"/>
<path d="M82.583 15.6226V15.9771C83.1344 15.2967 83.7074 14.799 84.3018 14.4839C84.8962 14.1616 85.5693 14.0005 86.3213 14.0005C87.2236 14.0005 88.0544 14.2332 88.8135 14.6987C89.5726 15.1642 90.1706 15.8446 90.6074 16.7397C91.0514 17.6349 91.2734 18.6948 91.2734 19.9194C91.2734 20.8218 91.1445 21.6525 90.8867 22.4116C90.6361 23.1636 90.2887 23.7974 89.8447 24.313C89.4007 24.8215 88.8743 25.2153 88.2656 25.4946C87.6641 25.7668 87.016 25.9028 86.3213 25.9028C85.4834 25.9028 84.778 25.7345 84.2051 25.3979C83.6393 25.0614 83.0986 24.5672 82.583 23.9155V28.3198C82.583 29.6089 82.1139 30.2534 81.1758 30.2534C80.6243 30.2534 80.2591 30.0851 80.0801 29.7485C79.901 29.4191 79.8115 28.9357 79.8115 28.2983V15.644C79.8115 15.0854 79.9333 14.6701 80.1768 14.3979C80.4202 14.1187 80.7533 13.979 81.1758 13.979C81.5911 13.979 81.9277 14.1222 82.1855 14.4087C82.4505 14.688 82.583 15.0926 82.583 15.6226ZM88.3301 19.8872C88.3301 19.1138 88.2119 18.4513 87.9756 17.8999C87.7393 17.3413 87.4098 16.9152 86.9873 16.6216C86.5719 16.3208 86.11 16.1704 85.6016 16.1704C84.7923 16.1704 84.1084 16.4891 83.5498 17.1265C82.9984 17.7638 82.7227 18.702 82.7227 19.9409C82.7227 21.1082 82.9984 22.0177 83.5498 22.6694C84.1012 23.314 84.7852 23.6362 85.6016 23.6362C86.0885 23.6362 86.5397 23.4966 86.9551 23.2173C87.3704 22.9308 87.7035 22.5047 87.9541 21.939C88.2048 21.3732 88.3301 20.6893 88.3301 19.8872Z" fill="white"/>
<path d="M75.2783 20.6606H69.542C69.5492 21.3267 69.6816 21.9139 69.9395 22.4224C70.2044 22.9308 70.5518 23.314 70.9814 23.5718C71.4183 23.8296 71.8981 23.9585 72.4209 23.9585C72.7718 23.9585 73.0905 23.9191 73.377 23.8403C73.6706 23.7544 73.9535 23.6255 74.2256 23.4536C74.4977 23.2746 74.7484 23.0848 74.9775 22.8843C75.2067 22.6838 75.5039 22.4116 75.8691 22.0679C76.0195 21.939 76.2344 21.8745 76.5137 21.8745C76.8145 21.8745 77.0579 21.9569 77.2441 22.1216C77.4303 22.2863 77.5234 22.519 77.5234 22.8198C77.5234 23.0848 77.4196 23.3963 77.2119 23.7544C77.0042 24.1053 76.6891 24.4455 76.2666 24.7749C75.8512 25.0972 75.3249 25.3657 74.6875 25.5806C74.0573 25.7954 73.3304 25.9028 72.5068 25.9028C70.6234 25.9028 69.1589 25.3657 68.1133 24.2915C67.0677 23.2173 66.5449 21.7599 66.5449 19.9194C66.5449 19.0529 66.6738 18.2508 66.9316 17.5132C67.1895 16.7684 67.5654 16.131 68.0596 15.6011C68.5537 15.0711 69.1624 14.6665 69.8857 14.3872C70.609 14.1007 71.4111 13.9575 72.292 13.9575C73.4378 13.9575 74.4189 14.201 75.2354 14.688C76.0589 15.1678 76.6748 15.7909 77.083 16.5571C77.4912 17.3234 77.6953 18.104 77.6953 18.8989C77.6953 19.6366 77.484 20.1164 77.0615 20.3384C76.639 20.5532 76.0446 20.6606 75.2783 20.6606ZM69.542 18.9956H74.8594C74.7878 17.993 74.5156 17.2446 74.043 16.7505C73.5775 16.2492 72.9616 15.9985 72.1953 15.9985C71.4648 15.9985 70.8633 16.2528 70.3906 16.7612C69.9251 17.2625 69.6423 18.0073 69.542 18.9956Z" fill="white"/>
<path d="M56.3076 18.8989H55.1904V23.9585C55.1904 24.6245 55.0436 25.1151 54.75 25.4302C54.4564 25.7453 54.0732 25.9028 53.6006 25.9028C53.0921 25.9028 52.6982 25.7381 52.4189 25.4087C52.1396 25.0793 52 24.5959 52 23.9585V11.8413C52 11.1538 52.154 10.6561 52.4619 10.3481C52.7699 10.0402 53.2676 9.88623 53.9551 9.88623H59.1436C59.8597 9.88623 60.472 9.91846 60.9805 9.98291C61.4889 10.0402 61.9473 10.1619 62.3555 10.3481C62.8496 10.5558 63.2865 10.853 63.666 11.2397C64.0456 11.6265 64.332 12.0776 64.5254 12.5933C64.7259 13.1017 64.8262 13.6424 64.8262 14.2153C64.8262 15.3898 64.4932 16.328 63.8271 17.0298C63.1683 17.7316 62.1657 18.2293 60.8193 18.5229C61.3851 18.8237 61.9258 19.2677 62.4414 19.855C62.957 20.4422 63.4154 21.0688 63.8164 21.7349C64.2246 22.3937 64.5397 22.9917 64.7617 23.5288C64.9909 24.0588 65.1055 24.424 65.1055 24.6245C65.1055 24.8322 65.0374 25.0399 64.9014 25.2476C64.7725 25.4481 64.5934 25.6056 64.3643 25.7202C64.1351 25.842 63.8701 25.9028 63.5693 25.9028C63.2113 25.9028 62.9105 25.8169 62.667 25.645C62.4235 25.4803 62.2122 25.269 62.0332 25.0112C61.8613 24.7534 61.625 24.3739 61.3242 23.8726L60.0459 21.7456C59.5876 20.965 59.1758 20.3706 58.8105 19.9624C58.4525 19.5542 58.0872 19.2749 57.7148 19.1245C57.3424 18.9741 56.8734 18.8989 56.3076 18.8989ZM58.1338 12.2817H55.1904V16.6108H58.0479C58.8141 16.6108 59.4587 16.5464 59.9814 16.4175C60.5042 16.2814 60.9017 16.0558 61.1738 15.7407C61.4531 15.4185 61.5928 14.978 61.5928 14.4194C61.5928 13.9826 61.4818 13.5994 61.2598 13.27C61.0378 12.9334 60.7298 12.6828 60.3359 12.5181C59.9635 12.3605 59.2295 12.2817 58.1338 12.2817Z" fill="white"/>
</svg>
